<svg xmlns="http://www.w3.org/2000/svg" viewBox="0 0 261.05 138.08"><defs><style>.cls-1{fill:#feeb15;stroke:#1d1d1b;stroke-linecap:round;stroke-linejoin:round;stroke-width:3px;}</style></defs><g id="Sphere.21"><g id="Layer_0_22" data-name="Layer(0)"><g id="Lines-22" data-name="Lines"><polygon class="cls-1" points="98.92 124.98 97.9 125.94 97.62 126.18 96.58 127.07 96.3 127.3 94.94 128.36 94.63 128.58 93.53 129.34 93.23 129.55 91.79 130.44 91.46 130.63 90.01 131.43 89.66 131.61 88.2 132.32 87.85 132.48 87.47 132.64 86.39 133.08 86.04 133.23 85.67 133.37 85.26 133.51 84.27 133.85 83.91 133.98 83.52 134.1 83.11 134.21 81.85 134.56 81.47 134.66 81.08 134.75 80.67 134.85 80.24 134.93 79.8 135.02 79.23 135.13 78.86 135.2 78.47 135.27 78.08 135.33 77.67 135.39 77.26 135.44 76.83 135.5 76.4 135.54 75.97 135.58 75.52 135.62 75.08 135.65 74.63 135.68 73.73 135.72 73.28 135.73 72.83 135.74 71.95 135.74 71.52 135.73 71.09 135.72 70.67 135.7 70.26 135.68 69.86 135.65 69.47 135.62 69.09 135.58 68.07 135.48 67.63 135.43 67.21 135.37 66.81 135.31 66.43 135.24 65.14 135.01 64.72 134.93 64.32 134.84 63.95 134.75 62.93 134.49 62.51 134.38 62.12 134.27 61.76 134.15 60.65 133.8 60.59 133.78 61.38 133.55 61.67 133.46 61.95 133.36 62.21 133.27 62.98 132.99 63.27 132.89 63.54 132.78 64.62 132.32 64.89 132.2 65.14 132.08 65.97 131.67 66.24 131.54 66.49 131.4 67.32 130.94 67.58 130.79 67.81 130.65 68.64 130.12 68.89 129.97 69.94 129.23 70.16 129.07 71.18 128.27 72.16 127.43 72.36 127.25 73.31 126.35 74.21 125.4 74.37 125.21 75.06 124.41 75.23 124.22 76.04 123.18 76.79 122.11 77.49 121.01 77.62 120.8 78.26 119.66 78.85 118.49 79.07 118 79.62 118.49 79.77 118.61 80.63 119.3 81.53 119.94 81.7 120.06 82.61 120.64 83.55 121.18 83.73 121.28 84.69 121.75 84.88 121.84 85.84 122.26 86.03 122.34 86.99 122.69 87.19 122.76 87.41 122.82 88.14 123.05 88.33 123.11 88.54 123.16 88.77 123.21 89.45 123.38 89.65 123.43 89.85 123.47 90.08 123.51 90.31 123.55 90.89 123.65 91.09 123.69 91.29 123.72 91.51 123.74 91.73 123.77 91.96 123.79 92.2 123.82 92.51 123.84 92.96 123.88 93.16 123.9 93.37 123.91 93.58 123.92 93.79 123.93 95.12 123.93 95.35 123.92 95.57 123.91 95.79 123.9 96.01 123.88 96.23 123.87 96.44 123.85 96.65 123.83 96.86 123.81 97.06 123.79 97.51 123.73 97.82 123.69 97.92 123.67 98.46 124.41 98.92 124.98"/><polygon class="cls-1" points="44.75 75.03 43.68 74.7 42.53 74.41 41.37 74.17 41.33 74.16 40.18 73.98 39.98 73.96 39 73.84 38.97 73.84 37.8 73.77 37.76 73.77 37.72 73.76 37.24 73.76 36.6 73.75 35.96 73.76 35.91 73.77 35.77 73.77 35.48 73.78 35.4 73.78 34.22 73.87 34.2 73.87 33.08 74.01 33.04 74.01 33 74.02 31.8 74.22 30.65 74.47 30.62 74.48 30.6 74.49 29.42 74.8 28.3 75.16 28.29 75.16 28.26 75.17 27.12 75.59 25.99 76.07 24.89 76.6 24.6 76.76 24.59 76.35 24.6 75.87 24.64 75.4 24.7 74.92 24.79 74.45 24.9 73.99 25.03 73.53 25.19 73.07 25.37 72.63 25.58 72.19 25.81 71.77 26.06 71.35 26.33 70.95 26.62 70.56 26.93 70.19 27.26 69.82 27.61 69.48 27.97 69.15 28.35 68.84 28.75 68.55 29.16 68.28 29.59 68.02 30.02 67.79 30.47 67.58 30.93 67.39 31.39 67.22 31.87 67.07 32.35 66.94 32.84 66.84 33.33 66.76 33.82 66.7 33.84 66.7 34.32 66.67 34.81 66.66 35.31 66.67 35.79 66.71 35.81 66.71 36.29 66.76 36.3 66.76 36.77 66.84 36.78 66.85 37.26 66.95 37.74 67.08 38.21 67.22 38.67 67.39 39.12 67.58 39.56 67.79 39.99 68.02 40.4 68.28 40.8 68.55 41.19 68.83 41.56 69.14 41.91 69.46 42.25 69.8 42.57 70.15 42.87 70.52 43.15 70.9 43.41 71.3 43.66 71.7 43.87 72.12 44.05 72.51 44.06 72.51 44.07 72.54 44.25 72.98 44.4 73.42 44.53 73.87 44.64 74.32 44.72 74.78 44.75 75.03"/><polygon class="cls-1" points="99.85 124.03 99.17 124.74 98.92 124.98 98.46 124.41 97.92 123.67 99.85 124.03"/><polygon class="cls-1" points="172.12 125.02 171.19 126.15 170.21 127.23 170.01 127.45 168.98 128.47 167.9 129.43 167.66 129.63 166.55 130.53 165.4 131.35 165.13 131.53 163.95 132.29 163.66 132.45 162.47 133.13 162.16 133.28 161.24 133.73 160.96 133.87 160.64 134.01 159.44 134.51 159.12 134.64 157.94 135.06 157.63 135.16 157.29 135.26 156.16 135.59 155.84 135.67 155.51 135.75 155.15 135.83 154.15 136.05 153.82 136.11 153.49 136.17 153.14 136.22 152.77 136.27 152.39 136.32 152 136.37 151.35 136.45 151.02 136.48 150.68 136.51 150.33 136.53 149.98 136.55 149.26 136.57 148.9 136.58 148.17 136.58 147.43 136.56 147.07 136.55 146.71 136.53 146.35 136.51 146 136.48 145.65 136.45 145.3 136.41 144.97 136.37 144.64 136.33 144.33 136.28 143.58 136.17 143.21 136.11 142.85 136.05 142.51 135.98 142.18 135.91 141.87 135.83 141.21 135.67 140.84 135.59 140.5 135.5 140.18 135.4 139.87 135.31 139.07 135.06 138.73 134.95 138.41 134.83 138.11 134.72 137.25 134.39 136.92 134.26 136.62 134.13 135.42 133.58 135.12 133.44 133.92 132.81 133.64 132.65 132.45 131.94 131.29 131.17 131.01 130.98 129.88 130.14 129.63 129.94 129.01 129.42 128.53 129.02 127.48 128.05 127.26 127.83 126.24 126.79 125.28 125.7 124.38 124.56 124.2 124.33 123.35 123.13 122.56 121.9 121.83 120.62 121.71 120.38 121.16 119.31 121.04 119.07 120.44 117.72 119.91 116.35 119.44 114.94 119.05 113.52 118.72 112.07 118.68 111.85 118.42 110.4 118.42 110.37 118.7 110.61 118.8 110.69 119.47 111.21 120.17 111.68 120.28 111.75 121 112.19 121.73 112.58 121.85 112.64 122.59 113 122.71 113.05 123.46 113.36 123.59 113.4 124.33 113.66 124.46 113.71 124.6 113.75 125.2 113.92 125.32 113.95 125.45 113.99 125.59 114.02 126.28 114.17 126.4 114.2 126.54 114.22 126.68 114.25 126.84 114.27 127.29 114.34 127.42 114.36 127.54 114.38 127.68 114.4 127.82 114.41 127.96 114.43 128.26 114.45 128.41 114.47 128.57 114.48 128.74 114.48 128.94 114.5 129.09 114.5 129.24 114.51 129.36 114.51 129.49 114.52 130 114.52 130.13 114.51 130.25 114.51 130.4 114.5 130.54 114.5 130.75 114.48 130.91 114.48 131.07 114.47 131.23 114.45 131.38 114.44 131.53 114.43 131.67 114.41 131.81 114.4 131.95 114.38 132.08 114.36 132.2 114.34 132.65 114.27 132.8 114.25 132.95 114.22 133.09 114.2 133.22 114.17 133.34 114.15 133.9 114.02 134.04 113.99 134.17 113.95 134.3 113.92 134.89 113.75 135.03 113.71 135.16 113.66 135.9 113.4 136.03 113.36 136.78 113.05 136.9 113 137.64 112.64 137.76 112.58 138.5 112.19 138.6 112.12 139.21 111.75 139.22 111.75 139.32 111.68 140.02 111.21 140.69 110.69 140.71 110.68 140.8 110.61 141.45 110.06 142.07 109.48 142.67 108.86 142.75 108.77 143.32 108.13 143.59 107.78 144.02 108.62 144.11 108.8 144.84 110.08 145.62 111.33 146.47 112.53 147.37 113.68 147.52 113.86 148.48 114.97 149.49 116.03 150.55 117.03 150.74 117.2 151.84 118.14 152.99 119.02 153.18 119.16 153.21 119.18 154.17 119.85 154.38 119.99 155.59 120.74 155.82 120.88 157.05 121.56 157.3 121.68 158.54 122.28 158.8 122.39 160.04 122.91 160.3 123.01 160.58 123.11 161.53 123.45 161.78 123.54 162.06 123.62 162.35 123.71 163.23 123.96 163.49 124.03 163.76 124.11 164.05 124.18 164.36 124.24 165.11 124.41 165.37 124.46 165.64 124.52 165.92 124.57 166.22 124.62 166.52 124.66 166.84 124.71 167.23 124.76 167.82 124.84 168.08 124.87 168.36 124.9 168.64 124.92 168.92 124.95 169.2 124.97 169.5 124.99 169.79 125 170.08 125.01 170.38 125.02 170.67 125.03 170.97 125.03 171.26 125.04 171.55 125.03 171.84 125.03 172.12 125.02"/><polygon class="cls-1" points="197.63 125.85 197.55 125.87 196.88 126.06 196.7 126.11 196.5 126.16 196.28 126.2 195.66 126.34 195.48 126.38 195.28 126.41 195.07 126.45 194.85 126.48 194.32 126.56 194.14 126.59 193.95 126.61 193.74 126.64 193.54 126.66 193.32 126.67 193.09 126.69 192.86 126.7 192.61 126.72 192.21 126.74 192.02 126.75 191.82 126.75 191.62 126.76 191.22 126.76 191.01 126.75 190.8 126.75 190.59 126.74 190.39 126.73 190.18 126.72 189.97 126.71 189.77 126.69 189.56 126.68 189.36 126.66 189.17 126.64 188.97 126.62 188.59 126.56 188.34 126.53 188.11 126.5 187.89 126.46 187.67 126.43 187.46 126.39 187.25 126.35 186.87 126.27 186.37 126.16 186.15 126.11 185.94 126.05 185.74 126 185.55 125.95 184.74 125.71 184.54 125.64 184.35 125.58 183.5 125.27 183.3 125.19 183.13 125.12 182.45 124.83 182.25 124.74 182.08 124.66 181.39 124.32 181.2 124.23 181.03 124.13 180.35 123.75 180.22 123.68 180.56 123.58 180.84 123.49 181.09 123.4 182.09 123.04 182.37 122.93 182.61 122.83 183.62 122.4 183.89 122.28 184.13 122.17 185.15 121.67 185.4 121.54 186.64 120.84 186.87 120.71 188.09 119.93 189.19 119.15 190.02 120.03 190.23 120.24 191.39 121.34 192.61 122.39 192.85 122.59 193.87 123.38 194.1 123.57 195.41 124.48 195.67 124.66 197 125.49 197.29 125.66 197.63 125.85"/><polygon class="cls-1" points="44.83 76.18 44.82 76.64 44.81 76.73 44.05 77.67 44.02 77.72 42.97 79.16 42.93 79.21 41.91 80.76 40.97 82.36 40.11 84 39.89 84.47 39.51 85.3 39.33 85.68 38.65 87.39 38.04 89.14 37.53 90.91 37.11 92.7 36.79 94.44 36.22 94.18 36.15 94.15 35.43 93.87 35.36 93.85 34.55 93.58 34.48 93.56 33.73 93.35 33.67 93.34 33.6 93.32 32.84 93.15 32.78 93.14 32.71 93.12 32.63 93.11 31.9 92.98 31.83 92.97 31.76 92.96 31.68 92.95 31.37 92.92 30.97 92.87 30.85 92.85 30.77 92.85 30.7 92.84 30.62 92.84 30.53 92.83 29.99 92.8 29.94 92.79 29.82 92.79 29.75 92.78 29.47 92.78 29.39 92.77 28.98 92.77 28.79 92.78 28.55 92.78 28.44 92.79 28.31 92.79 28.12 92.8 28.03 92.8 27.95 92.81 27.86 92.81 27.78 92.82 27.71 92.82 27.63 92.83 27.55 92.83 27.48 92.84 27.41 92.84 27.35 92.85 27.28 92.86 27.22 92.86 27.16 92.87 27.11 92.88 26.56 92.94 26.47 92.95 26.39 92.96 26.32 92.97 26.24 92.98 26.12 93 25.4 93.12 25.32 93.14 25.24 93.15 25.18 93.17 24.43 93.33 24.35 93.35 24.28 93.37 23.45 93.6 23.37 93.62 22.54 93.9 22.47 93.92 21.64 94.24 21.57 94.27 20.82 94.6 20.75 94.63 19.94 95.03 19.16 95.46 19.09 95.5 18.32 95.98 17.57 96.49 16.85 97.03 16.79 97.08 16.16 97.61 16.09 97.66 15.43 98.27 14.79 98.91 14.19 99.58 13.62 100.28 13.08 101 13.04 101.06 13.03 101.08 12.53 101.83 12.22 102.34 12.17 102.35 12.03 102.37 11.96 102.37 11.89 102.38 11.77 102.4 11.76 102.4 11.6 101.56 11.45 100.39 11.35 99.21 11.32 98.03 11.35 96.85 11.45 95.67 11.6 94.49 11.82 93.31 12.1 92.15 12.13 92.06 12.44 91 12.47 90.92 12.87 89.79 13.32 88.69 13.84 87.6 14.41 86.54 15.03 85.5 15.71 84.5 16.43 83.53 17.21 82.59 18.03 81.69 18.89 80.84 19.8 80.02 20.75 79.24 20.78 79.22 21.73 78.51 22.75 77.83 22.77 77.81 23.82 77.18 24.6 76.76 24.89 76.6 25.99 76.07 27.12 75.59 28.26 75.17 28.29 75.16 28.3 75.16 29.42 74.8 30.6 74.49 30.62 74.48 30.65 74.47 31.8 74.22 33 74.02 33.04 74.01 33.08 74.01 34.2 73.87 34.22 73.87 35.4 73.78 35.48 73.78 35.77 73.77 35.91 73.77 35.96 73.76 36.6 73.75 37.24 73.76 37.72 73.76 37.76 73.77 37.8 73.77 38.97 73.84 39 73.84 39.98 73.96 40.18 73.98 41.33 74.16 41.37 74.17 42.53 74.41 43.68 74.7 44.75 75.03 44.78 75.25 44.82 75.71 44.83 76.18"/><polygon class="cls-1" points="129.01 129.42 128.63 129.67 128.43 129.8 127.53 130.33 127.32 130.45 126.42 130.92 126.19 131.03 125.29 131.44 125.06 131.54 124.16 131.89 123.94 131.97 123.7 132.05 122.84 132.33 122.61 132.4 122.37 132.46 122.11 132.53 121.56 132.67 121.34 132.72 120.86 132.82 120.34 132.92 120 132.97 119.49 133.06 119.25 133.09 119.01 133.12 118.76 133.15 118.5 133.18 118.24 133.2 117.97 133.22 117.71 133.23 117.43 133.25 117.16 133.26 116.89 133.27 115.78 133.27 115.51 133.26 115.24 133.25 114.98 133.23 114.72 133.22 114.46 133.2 114.21 133.18 113.97 133.15 113.73 133.12 113.21 133.05 112.88 133 112.61 132.96 112.35 132.92 111.87 132.82 111.65 132.77 111.1 132.65 110.84 132.59 110.59 132.53 110.37 132.46 109.5 132.2 109.26 132.13 109.04 132.05 108.13 131.72 107.9 131.63 107 131.23 106.77 131.13 105.86 130.67 105.64 130.56 104.74 130.04 104.54 129.92 103.65 129.34 103.47 129.21 102.8 128.72 102.6 128.58 101.77 127.9 101.6 127.75 100.97 127.18 100.79 127.02 100.02 126.25 99.29 125.43 99.15 125.27 98.92 124.98 99.17 124.74 99.85 124.03 100.38 123.47 100.61 123.22 100.74 123.06 101.22 122.93 101.44 122.86 101.65 122.8 101.84 122.73 102.57 122.47 102.78 122.4 102.98 122.32 103.92 121.93 104.12 121.84 105.06 121.39 105.25 121.29 106.18 120.78 106.36 120.67 107.28 120.1 108.18 119.48 108.35 119.36 109.22 118.69 110.06 117.97 110.2 117.84 111.01 117.08 111.78 116.27 112.51 115.43 112.63 115.28 113.32 114.4 113.97 113.48 114.57 112.54 115.12 111.56 115.2 111.41 115.7 110.41 116.16 109.38 116.5 108.49 116.74 108.77 116.82 108.86 117.42 109.48 118.04 110.06 118.42 110.37 118.42 110.4 118.68 111.85 118.72 112.07 119.05 113.52 119.44 114.94 119.91 116.35 120.44 117.72 121.04 119.07 121.16 119.31 121.71 120.38 121.83 120.62 122.56 121.9 123.35 123.13 124.2 124.33 124.38 124.56 125.28 125.7 126.24 126.79 127.26 127.83 127.48 128.05 128.53 129.02 129.01 129.42"/><polygon class="cls-1" points="259.55 80.53 259.53 81.52 259.45 82.52 259.31 83.5 259.13 84.48 258.89 85.45 258.6 86.4 258.26 87.34 257.86 88.26 257.42 89.15 256.94 90.03 256.4 90.88 255.82 91.7 255.2 92.49 255.17 92.53 255.15 92.55 254.49 93.31 253.78 94.03 253.04 94.72 252.27 95.37 251.46 95.98 251.38 96.04 250.54 96.61 249.68 97.13 248.78 97.62 248.69 97.66 248.71 98.42 248.67 100.1 248.54 101.77 248.31 103.42 248.01 105.06 247.61 106.68 247.55 106.88 247.07 108.48 246.5 110.04 245.85 111.57 245.12 113.06 244.31 114.51 243.42 115.91 243.28 116.13 242.32 117.48 241.29 118.77 240.2 120.01 239.04 121.18 238.83 121.38 237.62 122.48 236.35 123.52 236.09 123.7 235.03 124.48 234.78 124.66 233.43 125.54 233.14 125.7 232.02 126.35 231.76 126.5 230.33 127.22 230.04 127.36 228.61 127.99 228.3 128.11 226.86 128.65 226.54 128.76 225.11 129.21 224.8 129.3 224.45 129.39 223.39 129.65 223.08 129.73 222.75 129.8 222.4 129.87 221.11 130.11 220.79 130.17 220.45 130.22 220.08 130.26 219.7 130.31 218.96 130.39 218.64 130.43 218.31 130.46 217.97 130.49 217.62 130.51 217.25 130.53 216.88 130.54 216.5 130.55 216.17 130.56 215.86 130.57 214.58 130.57 214.26 130.56 213.92 130.55 213.59 130.53 213.26 130.51 212.93 130.49 212.59 130.47 212.26 130.44 211.94 130.41 211.62 130.37 211.24 130.32 210.99 130.3 210.68 130.26 210.39 130.22 210.01 130.16 209.64 130.11 209.27 130.05 208.92 129.99 208.58 129.92 208.25 129.85 207.94 129.78 206.86 129.54 206.5 129.45 206.16 129.36 205.83 129.27 205.53 129.18 204.6 128.9 204.25 128.8 203.93 128.69 203.62 128.58 202.28 128.09 201.97 127.96 200.62 127.38 200.3 127.24 200.02 127.1 198.95 126.57 198.64 126.41 198.37 126.26 197.63 125.85 197.29 125.66 197 125.49 195.67 124.66 195.41 124.48 194.1 123.57 193.87 123.38 192.85 122.59 192.61 122.39 191.39 121.34 190.23 120.24 190.02 120.03 189.19 119.15 188.09 119.93 186.87 120.71 186.64 120.84 185.4 121.54 185.15 121.67 184.13 122.17 183.89 122.28 183.62 122.4 182.61 122.83 182.37 122.93 182.09 123.04 181.09 123.4 180.84 123.49 180.56 123.58 180.22 123.68 179.32 123.95 179.05 124.02 178.77 124.09 177.59 124.37 177.32 124.43 177.04 124.48 176.74 124.54 175.69 124.71 175.42 124.75 175.14 124.79 174.85 124.82 174.55 124.86 174.24 124.88 173.92 124.91 173.53 124.94 172.96 124.99 172.68 125 172.41 125.01 172.13 125.02 172.12 125.02 171.84 125.03 171.55 125.03 171.26 125.04 170.97 125.03 170.67 125.03 170.38 125.02 170.08 125.01 169.79 125 169.5 124.99 169.2 124.97 168.92 124.95 168.64 124.92 168.36 124.9 168.08 124.87 167.82 124.84 167.23 124.76 166.84 124.71 166.52 124.66 166.22 124.62 165.92 124.57 165.64 124.52 165.37 124.46 165.11 124.41 164.36 124.24 164.05 124.18 163.76 124.11 163.49 124.03 163.23 123.96 162.35 123.71 162.06 123.62 161.78 123.54 161.53 123.45 160.58 123.11 160.3 123.01 160.04 122.91 158.8 122.39 158.54 122.28 157.3 121.68 157.05 121.56 155.82 120.88 155.59 120.74 154.38 119.99 154.17 119.85 153.21 119.18 153.18 119.16 152.99 119.02 151.84 118.14 150.74 117.2 150.55 117.03 149.49 116.03 148.48 114.97 147.52 113.86 147.37 113.68 146.47 112.53 145.62 111.33 144.84 110.08 144.11 108.8 144.02 108.62 143.59 107.78 143.32 108.13 142.75 108.77 142.67 108.86 142.07 109.48 141.45 110.06 140.8 110.61 140.71 110.68 140.69 110.69 140.02 111.21 139.32 111.68 139.22 111.75 139.21 111.75 138.6 112.12 138.5 112.19 137.76 112.58 137.64 112.64 136.9 113 136.78 113.05 136.03 113.36 135.9 113.4 135.16 113.66 135.03 113.71 134.89 113.75 134.3 113.92 134.17 113.95 134.04 113.99 133.9 114.02 133.34 114.15 133.22 114.17 133.09 114.2 132.95 114.22 132.8 114.25 132.65 114.27 132.2 114.34 132.08 114.36 131.95 114.38 131.81 114.4 131.67 114.41 131.53 114.43 131.38 114.44 131.23 114.45 131.07 114.47 130.91 114.48 130.75 114.48 130.54 114.5 130.4 114.5 130.25 114.51 130.13 114.51 130 114.52 129.49 114.52 129.36 114.51 129.24 114.51 129.09 114.5 128.94 114.5 128.74 114.48 128.57 114.48 128.41 114.47 128.26 114.45 127.96 114.43 127.82 114.41 127.68 114.4 127.54 114.38 127.42 114.36 127.29 114.34 126.84 114.27 126.68 114.25 126.54 114.22 126.4 114.2 126.28 114.17 125.59 114.02 125.45 113.99 125.32 113.95 125.2 113.92 124.6 113.75 124.46 113.71 124.33 113.66 123.59 113.4 123.46 113.36 122.71 113.05 122.59 113 121.85 112.64 121.73 112.58 121 112.19 120.28 111.75 120.17 111.68 119.47 111.21 118.8 110.69 118.7 110.61 118.42 110.37 118.04 110.06 117.42 109.48 116.82 108.86 116.74 108.77 116.5 108.49 116.16 109.38 115.7 110.41 115.2 111.41 115.12 111.56 114.57 112.54 113.97 113.48 113.32 114.4 112.63 115.28 112.51 115.43 111.78 116.27 111.01 117.08 110.2 117.84 110.06 117.97 109.22 118.69 108.35 119.36 108.18 119.48 107.28 120.1 106.36 120.67 106.18 120.78 105.25 121.29 105.06 121.39 104.12 121.84 103.92 121.93 102.98 122.32 102.78 122.4 102.57 122.47 101.84 122.73 101.65 122.8 101.44 122.86 101.22 122.93 100.74 123.06 100.55 123.12 100.35 123.18 100.15 123.23 99.93 123.28 99.7 123.33 99.12 123.46 98.72 123.54 98.51 123.58 98.28 123.62 98.05 123.65 97.92 123.67 97.82 123.69 97.51 123.73 97.06 123.79 96.86 123.81 96.65 123.83 96.44 123.85 96.23 123.87 96.01 123.88 95.79 123.9 95.57 123.91 95.35 123.92 95.12 123.93 93.79 123.93 93.58 123.92 93.37 123.91 93.16 123.9 92.96 123.88 92.51 123.84 92.2 123.82 91.96 123.79 91.73 123.77 91.51 123.74 91.29 123.72 91.09 123.69 90.89 123.65 90.31 123.55 90.08 123.51 89.85 123.47 89.65 123.43 89.45 123.38 88.77 123.21 88.54 123.16 88.33 123.11 88.14 123.05 87.41 122.82 87.19 122.76 86.99 122.69 86.03 122.34 85.84 122.26 84.88 121.84 84.69 121.75 83.73 121.28 83.55 121.18 82.61 120.64 81.7 120.06 81.53 119.94 80.63 119.3 79.77 118.61 79.62 118.49 79.07 118 78.85 118.49 78.26 119.66 77.62 120.8 77.49 121.01 76.79 122.11 76.04 123.18 75.23 124.22 75.06 124.41 74.37 125.21 74.21 125.4 73.31 126.35 72.36 127.25 72.16 127.43 71.18 128.27 70.16 129.07 69.94 129.23 68.89 129.97 68.64 130.12 67.81 130.65 67.58 130.79 67.32 130.94 66.49 131.4 66.24 131.54 65.97 131.67 65.14 132.08 64.89 132.2 64.62 132.32 63.54 132.78 63.27 132.89 62.98 132.99 62.21 133.27 61.95 133.36 61.67 133.46 61.38 133.55 60.59 133.78 60.41 133.83 60.14 133.9 59.85 133.98 59.55 134.05 59.24 134.12 58.46 134.29 58.18 134.34 57.9 134.4 57.61 134.45 57.31 134.5 57.01 134.54 56.7 134.59 56.38 134.63 56.06 134.66 55.73 134.7 55.4 134.73 55.22 134.74 55.06 134.75 55 134.76 54.95 134.76 54.73 134.78 54.68 134.78 54.39 134.8 54.14 134.81 54.06 134.81 53.88 134.82 53.72 134.83 53.61 134.83 53.39 134.84 52.09 134.84 51.78 134.83 51.48 134.81 51.18 134.8 50.89 134.78 50.61 134.75 50.34 134.73 49.84 134.68 49.52 134.65 49.21 134.61 48.91 134.57 48.62 134.52 48.36 134.48 47.66 134.36 47.35 134.3 47.05 134.24 46.78 134.18 45.7 133.92 45.41 133.84 45.14 133.76 44.31 133.5 44.02 133.41 43.75 133.32 42.61 132.89 42.34 132.79 41.21 132.29 40.96 132.17 39.83 131.6 38.73 130.97 38.48 130.82 37.41 130.12 37.18 129.97 36.14 129.2 35.13 128.37 34.94 128.2 33.97 127.31 33.47 126.8 32.86 126.99 32.71 127.03 32.54 127.08 32.36 127.13 31.74 127.28 31.58 127.32 31.41 127.36 31.24 127.4 31.06 127.43 30.88 127.46 30.69 127.5 30.46 127.54 30.11 127.59 29.95 127.62 29.78 127.64 29.61 127.66 29.44 127.68 29.27 127.7 29.1 127.72 28.92 127.73 28.74 127.75 28.56 127.76 28.39 127.77 28.21 127.78 28.03 127.79 27.86 127.79 27.68 127.8 27.01 127.8 26.67 127.78 26.43 127.78 26.05 127.76 25.87 127.75 25.7 127.73 25.53 127.72 25.37 127.7 24.74 127.63 24.55 127.6 24.38 127.58 24.22 127.55 23.51 127.42 23.34 127.39 23.17 127.35 22.43 127.17 22.26 127.12 22.11 127.07 21.51 126.89 21.34 126.84 20.58 126.56 20.41 126.5 19.66 126.18 19.5 126.11 18.75 125.74 18.61 125.66 17.87 125.25 17.74 125.16 17.16 124.79 17.02 124.7 16.33 124.21 15.67 123.68 15.55 123.58 14.91 123.01 14.88 122.98 14.82 122.99 14.72 123.01 14.62 123.04 14.52 123.06 14.28 123.1 14.19 123.12 14.1 123.14 14.01 123.15 13.92 123.17 13.82 123.18 13.73 123.19 13.63 123.21 13.52 123.22 13.42 123.23 13.31 123.24 13.21 123.25 12.99 123.27 12.89 123.28 12.78 123.29 12.67 123.29 12.56 123.3 12.35 123.3 12.25 123.31 11.85 123.31 11.75 123.3 11.57 123.3 11.49 123.29 11.25 123.28 11.14 123.27 11.04 123.26 10.94 123.25 10.85 123.25 10.76 123.23 10.35 123.18 10.25 123.17 10.15 123.15 10.07 123.14 9.71 123.07 9.61 123.05 9.52 123.03 9.06 122.91 8.96 122.89 8.88 122.86 8.5 122.75 8.41 122.72 8.32 122.69 7.94 122.55 7.85 122.51 7.77 122.48 7.39 122.32 7.3 122.28 6.84 122.06 6.77 122.01 6.32 121.76 5.89 121.49 5.81 121.44 5.4 121.14 4.99 120.83 4.61 120.49 4.55 120.43 4.18 120.07 3.84 119.69 3.51 119.3 3.21 118.88 3.17 118.82 2.89 118.39 2.63 117.94 2.4 117.49 2.2 117.02 2.02 116.54 2 116.47 1.85 115.98 1.72 115.48 1.63 114.98 1.56 114.47 1.52 113.95 1.5 113.44 1.5 113.36 1.52 112.92 1.52 112.85 1.56 112.33 1.63 111.81 1.73 111.3 1.85 110.79 2 110.28 2.18 109.78 2.2 109.72 2.38 109.29 2.41 109.23 2.64 108.75 2.89 108.28 3.17 107.82 3.47 107.37 3.79 106.94 3.83 106.88 4.13 106.52 4.17 106.47 4.54 106.06 4.92 105.68 5.32 105.31 5.75 104.96 5.79 104.92 6.23 104.59 6.68 104.29 6.74 104.25 7.14 104 7.2 103.97 7.67 103.7 7.73 103.67 8.16 103.46 8.21 103.44 8.7 103.22 8.76 103.2 9.25 103.01 9.31 102.99 9.8 102.83 9.86 102.81 9.93 102.79 10.35 102.67 10.41 102.66 10.47 102.64 10.54 102.63 10.94 102.54 11 102.52 11.05 102.51 11.12 102.5 11.18 102.49 11.55 102.43 11.6 102.42 11.65 102.41 11.71 102.4 11.77 102.4 11.89 102.38 11.96 102.37 12.03 102.37 12.17 102.35 12.22 102.34 12.53 101.83 13.03 101.08 13.04 101.06 13.08 101 13.62 100.28 14.19 99.58 14.79 98.91 15.43 98.27 16.09 97.66 16.16 97.61 16.79 97.08 16.85 97.03 17.57 96.49 18.32 95.98 19.09 95.5 19.16 95.46 19.94 95.03 20.75 94.63 20.82 94.6 21.57 94.27 21.64 94.24 22.47 93.92 22.54 93.9 23.37 93.62 23.45 93.6 24.28 93.37 24.35 93.35 24.43 93.33 25.18 93.17 25.24 93.15 25.32 93.14 25.4 93.12 26.12 93 26.24 92.98 26.32 92.97 26.39 92.96 26.47 92.95 26.56 92.94 27.11 92.88 27.16 92.87 27.22 92.86 27.28 92.86 27.35 92.85 27.41 92.84 27.48 92.84 27.55 92.83 27.63 92.83 27.71 92.82 27.78 92.82 27.86 92.81 27.95 92.81 28.03 92.8 28.12 92.8 28.31 92.79 28.44 92.79 28.55 92.78 28.79 92.78 28.98 92.77 29.39 92.77 29.47 92.78 29.75 92.78 29.82 92.79 29.94 92.79 29.99 92.8 30.53 92.83 30.62 92.84 30.7 92.84 30.77 92.85 30.85 92.85 30.97 92.87 31.37 92.92 31.68 92.95 31.76 92.96 31.83 92.97 31.9 92.98 32.63 93.11 32.71 93.12 32.78 93.14 32.84 93.15 33.6 93.32 33.67 93.34 33.73 93.35 34.48 93.56 34.55 93.58 35.36 93.85 35.43 93.87 36.15 94.15 36.22 94.18 36.79 94.44 37.11 92.7 37.53 90.91 38.04 89.14 38.65 87.39 39.33 85.68 39.51 85.3 39.89 84.47 40.11 84 40.97 82.36 41.91 80.76 42.93 79.21 42.97 79.16 44.02 77.72 44.05 77.67 44.81 76.73 45.21 76.24 45.91 75.45 46.44 74.86 47.73 73.55 49.09 72.3 49.49 71.97 50.5 71.12 51.97 70.02 53.49 68.98 55.06 68.02 56.67 67.14 58.32 66.34 58.34 66.33 60.02 65.61 61.73 64.97 63.47 64.42 65.23 63.95 67 63.57 68.78 63.27 68.81 63.27 70.59 63.06 70.66 63.06 72.41 62.94 72.53 62.94 72.57 62.93 73.09 62.93 73.16 62.92 73.72 62.92 74.16 62.91 74.6 62.92 74.93 62.93 75.31 62.93 75.37 62.94 75.72 62.94 75.79 62.95 75.9 62.95 77.66 63.08 77.71 63.09 79.47 63.3 79.5 63.31 81.25 63.61 82.99 64 84.7 64.47 86.39 65.02 88.04 65.66 89.66 66.37 91.24 67.16 91.25 67.16 92.79 68.02 94.27 68.96 95.71 69.96 96.75 70.76 96.92 70.59 97.57 69.97 98.24 69.4 98.95 68.85 99.68 68.34 100.43 67.87 101.2 67.43 102 67.03 102.81 66.67 103.64 66.36 104.48 66.08 105.34 65.84 105.35 65.84 106.21 65.65 107.08 65.5 107.96 65.39 108 65.39 108.84 65.33 108.9 65.33 109.72 65.31 110.55 65.33 110.61 65.33 111.48 65.39 111.49 65.4 112.35 65.5 112.36 65.5 113.23 65.65 113.29 65.66 113.41 64 113.63 62.23 113.93 60.47 114.32 58.73 114.8 57.02 115.36 55.32 116.01 53.66 116.04 53.58 116.73 52.03 116.77 51.94 117.58 50.34 118.46 48.79 119.42 47.28 120.45 45.83 121.55 44.42 122.71 43.08 123.94 41.79 124.07 41.68 125.36 40.46 126.71 39.31 128.11 38.22 129.56 37.21 129.73 37.11 131.06 36.28 131.22 36.18 132.75 35.33 132.94 35.23 134.31 34.56 134.49 34.47 136.08 33.79 136.27 33.71 137.87 33.12 138.07 33.05 139.66 32.56 139.86 32.5 140.09 32.44 141.44 32.1 141.63 32.05 141.84 32 142.07 31.96 142.32 31.91 143.54 31.68 143.74 31.64 143.96 31.6 144.19 31.57 144.43 31.53 144.68 31.5 144.95 31.47 145.68 31.38 145.88 31.35 146.08 31.33 146.28 31.31 146.5 31.29 146.73 31.27 146.96 31.25 147.19 31.23 147.44 31.22 147.69 31.2 147.94 31.19 148.2 31.18 148.45 31.17 148.72 31.16 148.98 31.16 149.25 31.15 150.3 31.15 150.56 31.16 150.82 31.16 151.08 31.17 151.33 31.18 151.81 31.2 152.05 31.22 152.28 31.23 152.5 31.25 152.71 31.27 152.91 31.29 153.11 31.31 154.08 31.41 154.34 31.44 154.59 31.47 154.83 31.5 155.05 31.53 155.26 31.57 156.71 31.82 156.95 31.86 157.17 31.91 157.37 31.96 158.71 32.27 158.95 32.33 159.16 32.38 160.76 32.85 160.81 32.86 160.97 32.92 161.16 32.98 162.58 33.48 162.79 33.55 164.39 34.21 164.49 34.26 164.66 33.49 165.18 31.6 165.8 29.74 165.89 29.5 166.6 27.66 167.4 25.86 168.28 24.1 169.26 22.38 170.32 20.72 170.5 20.44 171.64 18.83 172.85 17.27 174.14 15.78 174.4 15.51 175.51 14.35 175.76 14.08 177.18 12.73 178.67 11.45 178.98 11.2 180.51 10 182.1 8.89 182.44 8.66 184.06 7.64 184.43 7.43 186.07 6.52 186.46 6.32 188.11 5.51 188.5 5.33 190.15 4.63 190.54 4.47 190.97 4.31 192.56 3.75 192.97 3.61 193.4 3.47 193.87 3.34 194.89 3.04 195.3 2.93 195.72 2.82 196.17 2.71 196.63 2.6 197.12 2.5 197.86 2.34 198.26 2.26 199.12 2.1 199.57 2.03 200.04 1.96 200.51 1.89 200.99 1.83 201.48 1.77 201.98 1.72 202.48 1.68 202.99 1.63 203.19 1.62 203.5 1.6 203.59 1.59 204.01 1.57 204.52 1.54 205.03 1.52 206.05 1.5 207.04 1.5 207.52 1.51 208 1.52 208.47 1.54 208.92 1.57 209.37 1.6 209.8 1.63 210.21 1.68 210.97 1.75 211.47 1.8 211.95 1.86 212.4 1.92 212.84 1.99 213.25 2.06 214.32 2.25 214.8 2.33 215.25 2.42 215.67 2.52 217.32 2.92 217.77 3.04 218.17 3.16 219.46 3.56 219.91 3.7 220.32 3.84 222.07 4.49 222.47 4.65 224.23 5.42 224.61 5.61 226.36 6.49 226.71 6.69 228.06 7.47 228.43 7.68 230.1 8.77 231.72 9.95 232.05 10.19 233.61 11.47 235.11 12.83 235.39 13.09 236.82 14.54 238.17 16.07 239.45 17.68 239.64 17.95 240.63 19.36 240.83 19.63 241.93 21.37 242.86 23.05 243.58 23.38 243.77 23.47 245.03 24.13 246.26 24.86 247.45 25.64 247.62 25.76 248.78 26.61 249.89 27.52 250.02 27.65 250.95 28.49 251.09 28.62 252.1 29.64 253.05 30.72 253.95 31.84 254.78 33.01 255.56 34.23 255.64 34.36 256.34 35.61 256.97 36.9 257.54 38.22 258.03 39.57 258.45 40.94 258.8 42.34 259.07 43.75 259.26 45.17 259.38 46.61 259.42 48.05 259.38 49.5 259.38 49.54 259.26 50.94 259.26 51.02 259.07 52.44 258.8 53.86 258.45 55.27 258.04 56.66 257.54 58.03 256.98 59.37 256.35 60.69 255.65 61.97 254.88 63.22 254.05 64.43 253.15 65.6 252.85 65.96 253.09 66.18 253.1 66.18 253.84 66.89 254.55 67.64 255.21 68.42 255.83 69.23 256.41 70.07 256.94 70.93 257.43 71.82 257.86 72.73 258.26 73.66 258.6 74.6 258.89 75.56 259.12 76.53 259.31 77.51 259.31 77.54 259.44 78.5 259.45 78.53 259.52 79.49 259.53 79.53 259.55 80.53"/></g></g></g></svg>